<svg width="42" height="12" viewBox="0 0 42 12" fill="none" xmlns="http://www.w3.org/2000/svg">
<path fill-rule="evenodd" clip-rule="evenodd" d="M7.56978 2.47806C7.63434 2.72982 7.66059 2.98212 7.68578 3.22529L7.70941 3.44645C7.79969 4.18455 7.79969 7.81064 7.70941 8.5541L7.68578 8.78332L7.68537 8.7876C7.66293 9.01763 7.63971 9.25567 7.57345 9.50961C7.39761 10.1103 6.92886 10.5 6.3966 10.5C6.3798 10.5 6.36301 10.5 6.34411 10.4995C6.05016 10.4995 5.73048 10.3191 5.54939 10.1618L3.78411 8.69153H2.87758C2.17788 8.69153 1.66556 8.18532 1.57265 7.40213C1.46557 6.61894 1.48656 5.27533 1.57265 4.56353C1.67396 3.82221 2.21042 3.30849 2.87758 3.30849H3.78411L5.5158 1.85967C5.72471 1.67823 6.0932 1.49894 6.38453 1.50001C6.90681 1.50001 7.39393 1.87577 7.56978 2.47806ZM9.0738 3.12904C9.28325 2.98249 9.56985 3.0351 9.71315 3.24713C10.2202 3.99382 10.5 4.97133 10.5 5.99984C10.5 7.02835 10.2202 8.00587 9.71315 8.75255C9.62706 8.8787 9.48639 8.95439 9.33574 8.95439C9.24178 8.95439 9.15097 8.9254 9.0738 8.87065C8.86594 8.72249 8.8145 8.4294 8.95885 8.21683C9.36041 7.62527 9.5814 6.83779 9.5814 5.99984C9.5814 5.16136 9.36041 4.37441 8.95885 3.78286C8.8145 3.57029 8.86594 3.27719 9.0738 3.12904Z" fill="#334155"/>
<path fill-rule="evenodd" clip-rule="evenodd" d="M16.75 5.15888C16.75 2.85895 18.6719 1 20.9967 1C23.3281 1 25.25 2.85895 25.25 5.15888C25.25 6.31785 24.8285 7.39381 24.1347 8.30579C23.3694 9.31176 22.4261 10.1882 21.3643 10.8762C21.1213 11.0352 20.9019 11.0472 20.6352 10.8762C19.5674 10.1882 18.624 9.31176 17.8652 8.30579C17.171 7.39381 16.75 6.31785 16.75 5.15888ZM19.5971 5.28861C19.5971 6.05909 20.2258 6.66507 20.9967 6.66507C21.7681 6.66507 22.4028 6.05909 22.4028 5.28861C22.4028 4.52413 21.7681 3.88865 20.9967 3.88865C20.2258 3.88865 19.5971 4.52413 19.5971 5.28861Z" fill="#334155"/>
<path fill-rule="evenodd" clip-rule="evenodd" d="M37.1779 1.00396C37.0664 0.987976 36.9543 1.02095 36.8652 1.0919C36.7736 1.16386 36.7163 1.26778 36.7039 1.3842C36.6775 1.61954 36.8473 1.8324 37.0823 1.85888C38.7031 2.03975 39.963 3.30239 40.1452 4.92827C40.1696 5.14612 40.3524 5.31051 40.5705 5.31051C40.5869 5.31051 40.6028 5.30951 40.6193 5.30751C40.7333 5.29502 40.8349 5.23856 40.9066 5.14862C40.9778 5.05868 41.0102 4.94676 40.9972 4.83234C40.7701 2.80373 39.2001 1.22931 37.1779 1.00396ZM37.209 2.74506C36.9709 2.70109 36.7523 2.85298 36.707 3.08533C36.6617 3.31767 36.8141 3.54451 37.0456 3.58998C37.7428 3.72588 38.281 4.26551 38.4175 4.96503V4.96553C38.4563 5.16689 38.6336 5.31329 38.8378 5.31329C38.8651 5.31329 38.8925 5.3108 38.9204 5.3058C39.152 5.25933 39.3043 5.03299 39.259 4.80015C39.0554 3.75536 38.2512 2.94842 37.209 2.74506ZM38 7.54544C38.2258 7.41528 38.4807 7.26827 38.8023 7.33668C39.0936 7.39814 40.0866 8.20408 40.3584 8.48339C40.5367 8.66627 40.6358 8.85514 40.6512 9.04401C40.6781 9.785 39.6713 10.6309 39.488 10.7363C39.2445 10.9117 38.9612 11.0002 38.643 11.0002C38.3178 11.0002 37.9553 10.9077 37.56 10.7234C35.4148 9.82797 32.1378 6.61567 31.2713 4.48714C30.9118 3.69468 30.9093 3.04113 31.2654 2.54997C31.4073 2.31963 32.2164 1.35679 32.941 1.38727C33.1337 1.40375 33.3209 1.50269 33.5046 1.68256C33.7825 1.95488 34.5683 2.95069 34.629 3.24299C34.6962 3.56777 34.5488 3.82609 34.4179 4.05293C34.3899 4.1017 34.3523 4.15957 34.3111 4.22297C34.1546 4.46358 33.9463 4.78384 34.02 4.98829C34.5483 6.2854 35.7688 7.41712 37.0665 7.94876C37.2672 8.02169 37.5872 7.81193 37.8271 7.65475C37.8896 7.6138 37.9466 7.57642 37.9947 7.54853L38 7.54544Z" fill="#334155"/>
</svg>
