<svg width="51" height="14" viewBox="0 0 51 14" fill="none" xmlns="http://www.w3.org/2000/svg">
<path d="M4.9834 12H3.71191V3.57129L1.16211 4.50781V3.35938L4.78516 1.99902H4.9834V12ZM13.7852 7.625C13.5208 7.93945 13.2041 8.19238 12.835 8.38379C12.4704 8.5752 12.0693 8.6709 11.6318 8.6709C11.0576 8.6709 10.5563 8.52962 10.1279 8.24707C9.7041 7.96452 9.37598 7.56803 9.14355 7.05762C8.91113 6.54264 8.79492 5.97526 8.79492 5.35547C8.79492 4.6901 8.92025 4.09082 9.1709 3.55762C9.42611 3.02441 9.78613 2.61654 10.251 2.33398C10.7158 2.05143 11.2581 1.91016 11.8779 1.91016C12.8623 1.91016 13.637 2.2793 14.2021 3.01758C14.7718 3.7513 15.0566 4.75391 15.0566 6.02539V6.39453C15.0566 8.33138 14.6738 9.74642 13.9082 10.6396C13.1426 11.5283 11.9873 11.984 10.4424 12.0068H10.1963V10.9404H10.4629C11.5065 10.9222 12.3086 10.651 12.8691 10.127C13.4297 9.59831 13.735 8.76432 13.7852 7.625ZM11.8369 7.625C12.2607 7.625 12.6504 7.49512 13.0059 7.23535C13.3659 6.97559 13.6279 6.6543 13.792 6.27148V5.76562C13.792 4.9362 13.612 4.26172 13.252 3.74219C12.8919 3.22266 12.4362 2.96289 11.8848 2.96289C11.3288 2.96289 10.8822 3.17708 10.5449 3.60547C10.2077 4.0293 10.0391 4.58984 10.0391 5.28711C10.0391 5.96615 10.2008 6.52669 10.5244 6.96875C10.8525 7.40625 11.29 7.625 11.8369 7.625ZM17.1387 11.3369C17.1387 11.1182 17.2025 10.9359 17.3301 10.79C17.4622 10.6442 17.6582 10.5713 17.918 10.5713C18.1777 10.5713 18.3737 10.6442 18.5059 10.79C18.6426 10.9359 18.7109 11.1182 18.7109 11.3369C18.7109 11.5465 18.6426 11.722 18.5059 11.8633C18.3737 12.0046 18.1777 12.0752 17.918 12.0752C17.6582 12.0752 17.4622 12.0046 17.3301 11.8633C17.2025 11.722 17.1387 11.5465 17.1387 11.3369ZM17.1455 5.30078C17.1455 5.08203 17.2093 4.89974 17.3369 4.75391C17.4691 4.60807 17.665 4.53516 17.9248 4.53516C18.1846 4.53516 18.3805 4.60807 18.5127 4.75391C18.6494 4.89974 18.7178 5.08203 18.7178 5.30078C18.7178 5.51042 18.6494 5.68587 18.5127 5.82715C18.3805 5.96842 18.1846 6.03906 17.9248 6.03906C17.665 6.03906 17.4691 5.96842 17.3369 5.82715C17.2093 5.68587 17.1455 5.51042 17.1455 5.30078ZM26.9316 7.75488C26.9316 9.236 26.6787 10.3366 26.1729 11.0566C25.667 11.7767 24.8763 12.1367 23.8008 12.1367C22.7389 12.1367 21.9528 11.7858 21.4424 11.084C20.932 10.3776 20.6676 9.32487 20.6494 7.92578V6.2373C20.6494 4.77441 20.9023 3.6875 21.4082 2.97656C21.9141 2.26562 22.707 1.91016 23.7871 1.91016C24.8581 1.91016 25.6465 2.25423 26.1523 2.94238C26.6582 3.62598 26.918 4.68327 26.9316 6.11426V7.75488ZM25.667 6.02539C25.667 4.95443 25.5166 4.17513 25.2158 3.6875C24.915 3.19531 24.4388 2.94922 23.7871 2.94922C23.14 2.94922 22.6683 3.19303 22.3721 3.68066C22.0758 4.16829 21.9232 4.91797 21.9141 5.92969V7.95312C21.9141 9.02865 22.069 9.82389 22.3789 10.3389C22.6934 10.8493 23.1673 11.1045 23.8008 11.1045C24.4251 11.1045 24.8877 10.863 25.1885 10.3799C25.4938 9.89681 25.6533 9.13574 25.667 8.09668V6.02539ZM35.043 7.75488C35.043 9.236 34.79 10.3366 34.2842 11.0566C33.7783 11.7767 32.9876 12.1367 31.9121 12.1367C30.8503 12.1367 30.0641 11.7858 29.5537 11.084C29.0433 10.3776 28.779 9.32487 28.7607 7.92578V6.2373C28.7607 4.77441 29.0137 3.6875 29.5195 2.97656C30.0254 2.26562 30.8184 1.91016 31.8984 1.91016C32.9694 1.91016 33.7578 2.25423 34.2637 2.94238C34.7695 3.62598 35.0293 4.68327 35.043 6.11426V7.75488ZM33.7783 6.02539C33.7783 4.95443 33.6279 4.17513 33.3271 3.6875C33.0264 3.19531 32.5501 2.94922 31.8984 2.94922C31.2513 2.94922 30.7796 3.19303 30.4834 3.68066C30.1872 4.16829 30.0345 4.91797 30.0254 5.92969V7.95312C30.0254 9.02865 30.1803 9.82389 30.4902 10.3389C30.8047 10.8493 31.2786 11.1045 31.9121 11.1045C32.5365 11.1045 32.999 10.863 33.2998 10.3799C33.6051 9.89681 33.7646 9.13574 33.7783 8.09668V6.02539Z" fill="#334155"/>
<path fill-rule="evenodd" clip-rule="evenodd" d="M40 7.00751C40 4.37356 42.105 2 45.01 2C47.85 2 50 4.32849 50 6.99249C50 10.0821 47.48 12 45 12C44.18 12 43.27 11.7797 42.54 11.349C42.285 11.1938 42.07 11.0786 41.795 11.1688L40.785 11.4692C40.53 11.5493 40.3 11.349 40.375 11.0786L40.71 9.95694C40.765 9.8017 40.755 9.63645 40.675 9.50626C40.245 8.71507 40 7.84877 40 7.00751ZM44.3499 7.00742C44.3499 7.36296 44.6349 7.64838 44.9899 7.65339C45.3449 7.65339 45.6299 7.36296 45.6299 7.01243C45.6299 6.6569 45.3449 6.37147 44.9899 6.37147C44.6399 6.36646 44.3499 6.6569 44.3499 7.00742ZM46.6547 7.01249C46.6547 7.36302 46.9397 7.65346 47.2947 7.65346C47.6497 7.65346 47.9347 7.36302 47.9347 7.01249C47.9347 6.65696 47.6497 6.37153 47.2947 6.37153C46.9397 6.37153 46.6547 6.65696 46.6547 7.01249ZM42.6851 7.65346C42.3351 7.65346 42.0451 7.36302 42.0451 7.01249C42.0451 6.65696 42.3301 6.37153 42.6851 6.37153C43.0401 6.37153 43.3251 6.65696 43.3251 7.01249C43.3251 7.36302 43.0401 7.64845 42.6851 7.65346Z" fill="#334155"/>
</svg>
